<svg viewBox="89.5 0 54 54" fill="none" xmlns="http://www.w3.org/2000/svg">
    <path d="M133.94 21.1275V48.2377H110.05C110.243 44.7692 111.976 42.6529 115.635 41.3036L120.786 39.4244C126.181 37.4984 129.117 34.223 129.117 29.2617C129.117 22.8573 124.735 18.5224 116.838 18.5224C108.94 18.5224 104.605 22.8573 104.605 30.5145H110.337C110.82 25.7961 112.889 23.5803 116.884 23.5803C120.447 23.5803 122.905 25.6029 122.905 29.1183C122.905 31.9107 121.556 33.8864 117.994 35.2329L113.179 36.9657C106.438 39.4215 103.836 50.4506V53.2927H138.995V21.1245H133.94V21.1275Z" fill="#FE9F4F"/>
    <path d="M138.995 21.1274H131.204C130.006 14.7874 124.629 10.8359 116.838 10.8359C109.046 10.8359 104.052 14.5357 102.659 21.1274H93.954L116.258 0L125.434 8.02887V4.46666C125.434 4.19445 124.032 3.86955 124.518 2.97095H129.456C129.506 2.97095 129.722 2.62848 129.799 2.73971C130.112 4.11249 129.037 3.81393 128.877 5.15159C128.78 5.95653 128.774 10.9793 128.997 11.4681C129.158 11.8165 131.376 13.8742 131.865 14.3484C134.207 16.6315 136.917 18.5692 138.989 21.1245L138.995 21.1274Z" fill="#FE9F4F"/>
</svg>
